<?xml version="1.0" encoding="UTF-8"?>
<svg width="445px" height="212px" viewBox="0 0 445 212" version="1.1" xmlns="http://www.w3.org/2000/svg" xmlns:xlink="http://www.w3.org/1999/xlink">
    <!-- Generator: Sketch 54.1 (76490) - https://sketchapp.com -->
    <title>specialita-logo copy</title>
    <desc>Created with Sketch.</desc>
    <g id="Desktop" stroke="none" stroke-width="1" fill="none" fill-rule="evenodd">
        <g id="spiga-web-desktop-elemente" transform="translate(-298.000000, -937.000000)" fill="#FFFFFF">
            <g id="home-hero" transform="translate(0.000000, 790.000000)">
                <g id="hero" transform="translate(0.000000, 50.000000)">
                    <g id="specialita-pizza">
                        <g id="Group-2">
                            <g id="specialita-logo" transform="translate(298.000000, 97.000000)">
                                <path d="M404.915575,159.156365 L405.178607,159.11931 L404.915575,159.156365 L405.178607,161.055351 L45.4789717,211.733963 L44.7982936,206.818492 L404.497929,156.141122 L404.915575,159.156365 Z M41.0798778,53.8528556 L40.8161907,53.8900032 L41.0798778,53.8528556 L40.8161907,51.9516992 L400.515826,1.27534992 L401.196504,6.19184181 L41.4980997,56.8681911 L41.0798778,53.8528556 Z M15.6409345,78.8027562 C26.3229654,77.2815368 30.6532186,82.1323577 30.648288,92.4590736 L30.6396596,106.863004 L21.1138421,108.220838 L21.1212379,94.4481701 C21.1237032,90.0602751 20.1080104,86.9200524 15.636004,87.5562663 C11.1639975,88.1937179 10.1557006,91.622341 10.1532353,96.0102359 L10.1458395,107.900255 C10.1446068,111.495977 10.7153177,115.021147 12.3029539,117.768996 L27.440967,143.765881 C29.6017794,147.375219 30.9022112,152.037899 30.8985133,157.044679 L30.8898849,174.884659 C30.8837217,185.522055 25.1051202,192.295133 15.5793027,193.652967 C5.04518822,195.153144 -0.00615755136,190.704598 5.63284027e-06,179.286169 L0.00740145389,163.790526 L9.5344516,162.432692 L9.52705578,177.298311 C9.52335786,182.626911 11.3981985,185.484922 15.5842332,184.888317 C19.4830635,184.332558 21.3603694,180.941068 21.3640674,175.61123 L21.3714632,159.816046 C21.3739285,155.899741 20.6553012,153.025639 18.6337768,149.407637 L4.6495118,124.959203 C2.05604388,120.471048 0.616324053,116.931026 0.618789327,111.140737 L0.626185148,97.5277421 C0.632348332,86.4100912 5.97582904,80.1803943 15.6409345,78.8027562 Z M73.0614728,117.866161 L73.0774971,87.3563664 C73.081195,81.5660779 70.0513736,80.7454364 65.7272836,81.3618459 L61.1061281,82.0203396 L61.082708,126.613482 L65.7026308,125.956226 C70.0267209,125.339817 73.0577749,123.655212 73.0614728,117.866161 Z M66.7392784,72.4536146 C79.0101782,70.7058832 82.6107104,74.5801036 82.6033146,87.412066 L82.5885229,115.107172 C82.5811271,127.937896 78.9756643,132.828326 66.7047646,134.576057 L61.0777774,135.378132 L61.0506594,186.233154 L51.5236093,187.590988 L51.5852411,74.6135234 L66.7392784,72.4536146 Z M125.625422,64.0642565 L125.620491,72.8289065 L109.884649,75.0705081 L109.862462,116.230077 L124.878444,114.089972 L124.873513,122.843482 L109.857531,124.983587 L109.832879,170.518673 L125.568721,168.277071 L125.565023,177.041721 L100.302131,180.639919 L100.36253,67.6636919 L125.625422,64.0642565 Z M161.274389,58.0543876 C171.235327,56.6359031 176.138756,62.036294 176.133826,71.5819769 L176.125197,86.4463578 L166.598147,87.8041916 L166.606776,73.2492532 C166.609241,68.4021455 165.021605,66.2744188 161.269458,66.8078977 C157.518544,67.3426143 155.92721,69.923365 155.924745,74.7717104 L155.88037,157.697355 C155.877905,162.55684 157.465541,164.673427 161.216455,164.139948 C164.968601,163.605232 166.558703,161.035621 166.561168,156.176136 L166.569797,140.380951 L176.096847,139.024355 L176.088218,155.140122 C176.083288,164.685805 171.172463,171.484876 161.211524,172.904598 C151.251819,174.323083 146.348389,168.922692 146.35332,159.377009 L146.398927,75.8188639 C146.403858,66.273181 151.31345,59.4728721 161.274389,58.0543876 Z M204.721263,52.7955976 L204.659631,165.771824 L195.133813,167.129658 L195.194213,54.1521937 L204.721263,52.7955976 Z M237.298868,121.069386 L252.017785,118.972604 L244.836443,54.901911 L244.550471,54.9427574 L237.298868,121.069386 Z M251.198081,46.1731564 L266.439636,156.96967 L256.902725,158.328741 L253.031012,127.592435 L236.288106,129.977618 L232.370786,161.824204 L222.843736,163.182038 L238.207322,48.0248604 L251.198081,46.1731564 Z M294.202439,40.0468133 L294.145737,144.25839 L309.881579,142.018026 L309.876649,150.782676 L284.614989,154.380874 L284.675389,41.4046471 L294.202439,40.0468133 Z M340.245739,33.4868794 L340.184107,146.463106 L330.65829,147.82094 L330.718689,34.8447132 L340.245739,33.4868794 Z M390.474458,26.331083 L390.469527,35.095733 L379.788729,36.6181902 L379.732027,140.829767 L370.20621,142.187601 L370.261679,37.9747862 L359.58088,39.4960056 L359.584578,30.7313557 L390.474458,26.331083 Z M414.967075,95.7567406 L429.695852,93.6587203 L422.515743,29.5880274 L422.21991,29.6301116 L414.967075,95.7567406 Z M428.866288,20.8605106 L444.107842,131.658262 L434.580792,133.016096 L430.699219,102.279789 L413.956313,104.664972 L410.038993,136.511558 L400.511943,137.869392 L415.875528,22.7122146 L428.866288,20.8605106 Z M429.018395,15.9919895 L421.791445,17.0218142 L412.570089,1.43952661 L422.670316,-2.94875235e-13 L429.018395,15.9919895 Z"></path>
                            </g>
                        </g>
                    </g>
                </g>
            </g>
        </g>
    </g>
</svg>