<?xml version="1.0" encoding="UTF-8"?>
<svg width="160px" height="130px" viewBox="0 0 160 130" version="1.1" xmlns="http://www.w3.org/2000/svg" xmlns:xlink="http://www.w3.org/1999/xlink">
    <!-- Generator: Sketch 53 (72520) - https://sketchapp.com -->
    <title>spiga-logo</title>
    <desc>Created with Sketch.</desc>
    <g id="Desktop" stroke="none" stroke-width="1" fill="none" fill-rule="evenodd">
        <g id="cdwi-web-icons" transform="translate(-670.000000, -231.000000)">
            <g id="svg" transform="translate(632.000000, 231.000000)">
                <g id="spiga-logo" transform="translate(38.000000, 0.000000)">
                    <g>
                        <polygon id="Fill-1" fill="#FFFFFF" points="3.13405324 125.984257 156.715364 125.984257 156.715364 3.12332459 3.13405324 3.12332459"></polygon>
                        <path d="M0,0.000172622951 L0,129.107755 L159.849995,129.104302 L159.849995,0.000172622951 L0,0.000172622951 Z M4.17912257,124.943514 L155.670872,124.943514 L155.670872,4.16498902 L4.17912257,4.16498902 L4.17912257,124.943514 Z" id="Fill-2" fill="#432D20"></path>
                        <path d="M17.8645076,105.23705 C17.8645076,109.56183 20.9021373,111.43479 25.339929,111.43479 C31.0785722,111.43479 33.2010445,108.31204 33.2010445,102.881898 C33.2010445,98.7015452 32.3332328,97.0196223 27.6067479,92.1177059 C23.170111,87.5052207 22.687416,86.0632436 22.687416,83.7080911 C22.687416,81.0174748 23.6037282,79.9121125 25.5812765,79.9121125 C27.4618239,79.9121125 28.2817126,81.0652338 28.2817126,83.035437 L28.2817126,85.7738125 L32.8153504,85.7738125 L32.8153504,82.5066354 C32.8153504,80.0559649 32.2368092,78.8550846 31.4169206,78.0857616 C30.2592609,77.0287338 28.3781361,76.1633174 25.7735462,76.1633174 C20.5170206,76.1633174 17.8645076,78.6145633 17.8645076,84.2846518 C17.8645076,88.9943813 20.4205971,91.7816666 23.5073047,94.8566567 C28.5230601,99.8069075 28.6679841,100.768417 28.6679841,103.698404 C28.6679841,105.956888 28.0409425,107.688296 25.484853,107.688296 C23.5558051,107.688296 22.687416,106.245168 22.687416,103.938926 L22.687416,101.10273 L17.8645076,101.10273 L17.8645076,105.23705 Z M51.334441,80.4886731 L53.84203,80.4886731 C57.1210072,80.4886731 57.4593556,81.0174748 57.4593556,86.2554305 C57.4593556,91.4922354 57.1210072,92.0216125 53.84203,92.0216125 L51.334441,92.0216125 L51.334441,80.4886731 Z M46.5115326,111.147085 L51.334441,111.147085 L51.334441,96.0586879 L54.4684942,96.0586879 C61.0281808,96.0586879 62.2816866,94.2806715 62.2816866,86.2554305 C62.2816866,78.2296141 61.0281808,76.4515977 54.4684942,76.4515977 L46.5115326,76.4515977 L46.5115326,111.147085 Z M75.3993276,111.147085 L80.222236,111.147085 L80.222236,76.4515977 L75.3993276,76.4515977 L75.3993276,111.147085 Z M109.97842,85.62996 L109.97842,82.4588764 C109.97842,78.0380026 107.277984,76.1633174 102.117305,76.1633174 C95.8959665,76.1633174 93.9189956,78.8061748 93.9189956,85.2939207 L93.9189956,102.834139 C93.9189956,108.215947 95.8959665,111.43479 102.020881,111.43479 C104.769818,111.43479 108.097295,111.003232 109.97842,110.571099 L109.97842,93.1275502 L101.972381,93.1275502 L101.972381,97.1634748 L105.155512,97.1634748 L105.155512,107.35053 C104.527893,107.494383 103.419311,107.688296 102.068804,107.688296 C100.091833,107.688296 98.7413266,105.909129 98.7413266,103.121844 L98.7413266,85.62996 C98.7413266,81.9294993 99.8510632,79.9121125 102.068804,79.9121125 C103.949929,79.9121125 105.155512,81.4012731 105.155512,83.852519 L105.155512,85.62996 L109.97842,85.62996 Z M122.566021,111.147085 L127.388352,111.147085 L128.980206,102.305337 L136.502973,102.305337 L138.094827,111.147085 L142.917735,111.147085 L135.828008,76.4515977 L130.233134,76.4515977 L122.566021,111.147085 Z M132.741301,81.545701 L132.837724,81.545701 L135.828008,98.2694125 L129.703093,98.2694125 L132.741301,81.545701 Z" id="Fill-3" fill="#432D20"></path>
                        <path d="M18.0105864,67.226282 L22.3704309,67.226282 C26.424838,67.226282 26.9802837,65.8418459 26.9802837,61.5262721 C26.9802837,58.122723 26.5362736,57.3752656 24.3144908,56.9598197 L24.3144908,56.9051557 C26.2031216,56.6554279 26.841711,56.0196 26.841711,52.0901262 C26.841711,48.4374246 26.2585507,47.247477 22.8427329,47.247477 L18.0105864,47.247477 L18.0105864,67.226282 Z M20.7872375,57.9834738 L22.5921473,57.9834738 C24.1199116,57.9834738 24.3699199,58.4271148 24.3699199,61.4428377 C24.3699199,64.5978098 24.0927744,65.0673443 22.509581,65.0673443 L20.7872375,65.0673443 L20.7872375,57.9834738 Z M20.7872375,49.4052639 L22.092708,49.4052639 C23.8699033,49.4052639 24.2313472,49.9588082 24.2313472,52.2276492 C24.2313472,55.4936754 24.0644825,55.8256869 22.3981454,55.8256869 L20.7872375,55.8256869 L20.7872375,49.4052639 Z M29.7938875,67.226282 L32.5716933,67.226282 L33.4880055,62.1350557 L37.8201355,62.1350557 L38.7364477,67.226282 L41.5130987,67.226282 L37.4315545,47.247477 L34.2097385,47.247477 L29.7938875,67.226282 Z M35.6537818,50.1809164 L35.7092109,50.1809164 L37.4315545,59.8104 L33.9043011,59.8104 L35.6537818,50.1809164 Z M45.2349313,67.226282 L48.0121598,67.226282 L48.0121598,58.537018 L48.9561865,58.537018 C50.7893882,58.537018 51.1225402,59.035323 51.1225402,60.9169131 L51.1225402,65.4281262 C51.1225402,66.2302475 51.1785466,66.7274016 51.4556921,67.226282 L54.0666333,67.226282 C53.8991912,66.3959656 53.8991912,65.4005066 53.8991912,64.6800934 L53.8991912,60.3363246 C53.8991912,58.454159 53.2611793,57.4857443 51.3725485,57.2924066 L51.3725485,57.2365918 C53.6503377,56.5449492 54.0106268,55.3826213 54.0106268,52.6989098 C54.0106268,48.3263705 53.5937538,47.247477 49.5393467,47.247477 L45.2349313,47.247477 L45.2349313,67.226282 Z M48.0121598,49.570982 L49.3453449,49.570982 C51.0671111,49.570982 51.2333983,49.8489049 51.2333983,52.8093885 C51.2333983,55.7980672 50.9285383,56.2135131 48.7338927,56.2135131 L48.0121598,56.2135131 L48.0121598,49.570982 Z M65.7292606,63.9332115 C65.7292606,66.5070197 67.4510268,67.3925754 69.4228013,67.3925754 C72.3108879,67.3925754 73.3109211,66.0363344 73.3109211,64.6260049 L73.3109211,62.6604049 L70.8668446,62.6604049 L70.8668446,63.9332115 C70.8668446,65.0408754 70.5896991,65.7319426 69.6173805,65.7319426 C68.7842119,65.7319426 68.3396244,65.3723115 68.3396244,64.0713098 L68.3396244,61.1108262 L73.3109211,61.1108262 L73.3109211,56.6272328 C73.3109211,54.0545754 71.5885776,53.1690197 69.5053675,53.1690197 C67.0901603,53.1690197 65.7292606,54.5528803 65.7292606,56.9051557 L65.7292606,63.9332115 Z M68.3396244,56.3510361 C68.3396244,55.3544262 68.6450618,54.8285016 69.6173805,54.8285016 C70.5054007,54.8285016 70.8668446,55.327382 70.8668446,56.5719934 L70.8668446,59.2844754 L68.3396244,59.2844754 L68.3396244,56.3510361 Z M84.3626737,62.4394475 C84.3626737,65.5380295 85.5012796,67.3925754 89.0008184,67.3925754 C92.2226344,67.3925754 93.0829401,65.787182 93.0829401,63.6846344 L93.0829401,61.469882 L90.4725763,61.469882 L90.4725763,62.8537426 C90.4725763,64.5143754 89.8056951,65.2342131 88.7785247,65.2342131 C87.8899271,65.2342131 87.1399022,64.8187672 87.1399022,62.4664918 L87.1399022,52.6707148 C87.1399022,50.2637754 87.4170476,49.2389705 88.8616683,49.2389705 C90.0285662,49.2389705 90.4725763,50.0416672 90.4725763,51.3144738 L90.4725763,52.6989098 L93.0829401,52.6989098 L93.0829401,50.7062656 C93.0829401,48.4644689 91.8051841,47.0811836 89.0562475,47.0811836 C85.2795633,47.0811836 84.3626737,49.5445131 84.3626737,52.3381279 L84.3626737,62.4394475 Z M95.7776023,67.226282 L98.5554082,67.226282 L99.4722977,62.1350557 L103.804428,62.1350557 L104.72074,67.226282 L107.497391,67.226282 L103.415269,47.247477 L100.192876,47.247477 L95.7776023,67.226282 Z M101.637497,50.1809164 L101.693503,50.1809164 L103.415269,59.8104 L99.8880159,59.8104 L101.637497,50.1809164 Z M111.219224,67.226282 L113.995875,67.226282 L113.995875,58.1497672 L118.495447,58.1497672 L118.495447,55.8256869 L113.995875,55.8256869 L113.995875,49.570982 L118.772592,49.570982 L118.772592,47.247477 L111.219224,47.247477 L111.219224,67.226282 Z M122.743278,67.226282 L125.520507,67.226282 L125.520507,58.1497672 L130.019501,58.1497672 L130.019501,55.8256869 L125.520507,55.8256869 L125.520507,49.570982 L130.297801,49.570982 L130.297801,47.247477 L122.743278,47.247477 L122.743278,67.226282 Z M134.26791,67.226282 L141.822433,67.226282 L141.822433,64.9016262 L137.045139,64.9016262 L137.045139,58.1497672 L141.544711,58.1497672 L141.544711,55.8256869 L137.045139,55.8256869 L137.045139,49.570982 L141.822433,49.570982 L141.822433,47.247477 L134.26791,47.247477 L134.26791,67.226282 Z M137.657168,45.8636164 L139.322928,45.8636164 L137.40716,41.8512836 L134.629931,41.8512836 L137.657168,45.8636164 Z" id="Fill-5" fill="#BCC313"></path>
                        <path d="M18.0105864,37.9730789 L20.7878148,37.9730789 L20.7878148,29.2838149 L21.7318416,29.2838149 C23.5650433,29.2838149 23.8981952,29.7821198 23.8981952,31.6631346 L23.8981952,36.1743477 C23.8981952,36.9770444 23.9536243,37.4747739 24.2313472,37.9730789 L26.841711,37.9730789 C26.6748463,37.142187 26.6748463,36.146728 26.6748463,35.4268903 L26.6748463,31.0825461 C26.6748463,29.2009559 26.036257,28.2325411 24.1482035,28.0392034 L24.1482035,27.9833887 C26.424838,27.2917461 26.7862819,26.1294182 26.7862819,23.4451313 C26.7862819,19.0731674 26.3699863,17.9942739 22.3150018,17.9942739 L18.0105864,17.9942739 L18.0105864,37.9730789 Z M20.7878148,20.3177789 L22.1204226,20.3177789 C23.8427661,20.3177789 24.0090534,20.5951264 24.0090534,23.5561854 C24.0090534,26.5442887 23.703616,26.9597346 21.5095478,26.9597346 L20.7878148,26.9597346 L20.7878148,20.3177789 Z M31.8955739,37.9730789 L34.6728024,37.9730789 L34.6728024,17.9942739 L31.8955739,17.9942739 L31.8955739,37.9730789 Z M39.5049489,34.5695297 C39.5049489,37.059328 41.2544296,38.1393723 43.8099417,38.1393723 C47.1143239,38.1393723 48.3366509,36.3406411 48.3366509,33.2132887 C48.3366509,30.8057739 47.8366343,29.8373592 45.1142575,27.0149739 C42.5593228,24.3583067 42.2821774,23.5279903 42.2821774,22.1723248 C42.2821774,20.6227461 42.8093311,19.9863428 43.9479371,19.9863428 C45.0311139,19.9863428 45.5028386,20.6497903 45.5028386,21.7844985 L45.5028386,23.3622723 L48.1143571,23.3622723 L48.1143571,21.4806821 C48.1143571,20.0692018 47.7806278,19.3775592 47.3089032,18.9344936 C46.6420219,18.32571 45.5594224,17.8279805 44.0593726,17.8279805 C41.0321359,17.8279805 39.5049489,19.2388854 39.5049489,22.5043362 C39.5049489,25.2162428 40.9767068,26.8210608 42.7544794,28.5921723 C45.6425661,31.4421772 45.7262871,31.9957215 45.7262871,33.6839739 C45.7262871,34.9849756 45.3648432,35.9804346 43.8930854,35.9804346 C42.782194,35.9804346 42.2821774,35.1506936 42.2821774,33.8220723 L42.2821774,32.1896346 L39.5049489,32.1896346 L39.5049489,34.5695297 Z M50.8367339,20.3177789 L54.1688307,20.3177789 L54.1688307,37.9730789 L56.9460591,37.9730789 L56.9460591,20.3177789 L60.2787333,20.3177789 L60.2787333,17.9942739 L50.8367339,17.9942739 L50.8367339,20.3177789 Z M66.6109296,22.8639674 C66.6109296,20.8989428 67.2783883,19.9863428 68.5278524,19.9863428 C69.8056084,19.9863428 70.4719123,20.8989428 70.4719123,22.8639674 L70.4719123,33.3519625 C70.4719123,35.0678346 69.6941729,35.9804346 68.5278524,35.9804346 C67.3886691,35.9804346 66.6109296,35.0678346 66.6109296,33.3519625 L66.6109296,22.8639674 Z M63.8348559,33.185669 C63.8348559,36.2848264 64.9734619,38.1393723 68.5278524,38.1393723 C72.3322512,38.1393723 73.2485634,35.6760428 73.2485634,32.8812772 L73.2485634,22.7811084 C73.2485634,19.6813756 72.1099575,17.8279805 68.5278524,17.8279805 C64.7505907,17.8279805 63.8348559,20.2907346 63.8348559,23.0855002 L63.8348559,33.185669 Z M77.9975663,37.9730789 L80.7747948,37.9730789 L80.7747948,29.2838149 L81.7182441,29.2838149 C83.5520232,29.2838149 83.8851752,29.7821198 83.8851752,31.6631346 L83.8851752,36.1743477 C83.8851752,36.9770444 83.9406043,37.4747739 84.2177497,37.9730789 L86.8281135,37.9730789 C86.6624036,37.142187 86.6624036,36.146728 86.6624036,35.4268903 L86.6624036,31.0825461 C86.6624036,29.2009559 86.0226595,28.2325411 84.1351835,28.0392034 L84.1351835,27.9833887 C86.4123953,27.2917461 86.7732618,26.1294182 86.7732618,23.4451313 C86.7732618,19.0731674 86.3563889,17.9942739 82.3019817,17.9942739 L77.9975663,17.9942739 L77.9975663,37.9730789 Z M80.7747948,20.3177789 L82.1068251,20.3177789 C83.8297461,20.3177789 83.9966107,20.5951264 83.9966107,23.5561854 C83.9966107,26.5442887 83.6911734,26.9597346 81.4971051,26.9597346 L80.7747948,26.9597346 L80.7747948,20.3177789 Z M90.8553835,37.9730789 L93.6326119,37.9730789 L94.5489241,32.8812772 L98.8822088,32.8812772 L99.7979436,37.9730789 L102.574595,37.9730789 L98.4936278,17.9942739 L95.2718119,17.9942739 L90.8553835,37.9730789 Z M96.7152778,20.9271379 L96.7707069,20.9271379 L98.4936278,30.5566215 L94.9657971,30.5566215 L96.7152778,20.9271379 Z M107.073012,37.9730789 L109.517088,37.9730789 L109.517088,20.9271379 L109.573672,20.9271379 L112.849763,37.9730789 L116.848741,37.9730789 L116.848741,17.9942739 L114.238377,17.9942739 L114.238377,34.5971493 L114.182948,34.5971493 L110.90628,17.9942739 L107.073012,17.9942739 L107.073012,37.9730789 Z M120.820582,20.3177789 L124.153256,20.3177789 L124.153256,37.9730789 L126.930484,37.9730789 L126.930484,20.3177789 L130.262581,20.3177789 L130.262581,17.9942739 L120.820582,17.9942739 L120.820582,20.3177789 Z M134.233844,37.9730789 L141.78779,37.9730789 L141.78779,35.6484231 L137.011073,35.6484231 L137.011073,28.8965641 L141.510067,28.8965641 L141.510067,26.5724838 L137.011073,26.5724838 L137.011073,20.3177789 L141.78779,20.3177789 L141.78779,17.9942739 L134.233844,17.9942739 L134.233844,37.9730789 Z" id="Fill-7" fill="#432D20"></path>
                    </g>
                </g>
            </g>
        </g>
    </g>
</svg>