<svg version="1" xmlns="http://www.w3.org/2000/svg" width="341.333" height="341.333" viewBox="0 0 256.000000 256.000000"><path d="M0 128v128h256V0H0v128zm242 0v114H14V14h228v114z"/><path d="M116.5 48.3c-15.1 4-22.1 13.6-23.2 32.2-.6 10.2.9 18.1 5.3 26.7 3.7 7.3 6.9 11.3 20.7 25.7 13.7 14.2 20.2 22.7 21.7 27.9 1.4 5.3 1.2 18.7-.4 22.5-2.2 5.2-5 7-11.4 7.5-5.1.4-6.2.1-9-2.3-4-3.3-5.2-7.7-5.2-18.8V161H93v11.8c0 18.9 3.5 26.4 14.8 31.8 4.7 2.3 7.5 2.8 16.1 3.2 12.3.6 19.2-.8 25.4-4.9 8.2-5.4 12.5-14.6 13.4-29 .7-10.3-.9-20.6-4.4-27.4-3.3-6.7-8.1-12.8-20.9-26.5-17.9-19.3-22.5-27.2-22.3-38.8.1-10.9 3.8-16 12-16.9 5.3-.5 10.4 2.2 12 6.5.6 1.5 1.3 6.6 1.6 11.4l.6 8.8H161V79.7c0-6.1-.5-13-1.1-15.2-1.5-5.3-9.1-12.7-15.5-14.9-6.4-2.3-21.4-3-27.9-1.3z"/></svg>